# xmcd
#
# Track frame offsets: 
#        150
#        10488
#        20680
#        33107
#        43885
#        54425
#        65655
#        83105
#        101230
#        114327
#        139435
#        153210
#        165980
#
# Disc length: 2514 seconds
#
# Revision: 2
# Processed by: cddbd v1.5.2PL0 Copyright (c) Steve Scherf et al.
# Submitted via: ExactAudioCopy v1.0b3
#
DISCID=a809d00d
DTITLE=Cash, Johnny - American Recordings
DYEAR=1994
DGENRE=Country
TTITLE0=Delia's Gone
TTITLE1=Let The Train Blow The Whistle
TTITLE2=The Beast In Me
TTITLE3=Drive On
TTITLE4=Why Me Lord
TTITLE5=Thirteen
TTITLE6=Oh, Bury Me Not (Introduction - A Cowboy's Prayer)
TTITLE7=Bird On A Wire
TTITLE8=Tennessee Stud
TTITLE9=Down There By The Train
TTITLE10=Redemption
TTITLE11=Like A Soldier
TTITLE12=The Man Who Couldn't Cry
EXTD=
EXTT0=
EXTT1=
EXTT2=
EXTT3=
EXTT4=
EXTT5=
EXTT6=
EXTT7=
EXTT8=
EXTT9=
EXTT10=
EXTT11=
EXTT12=
PLAYORDER=
